<svg height="16" viewBox="0 0 16 16" width="16" xmlns="http://www.w3.org/2000/svg"><path d="m14 6c-.55 0-1 .45-1 1v4c0 .55.45 1 1 1s1-.45 1-1v-4c0-.55-.45-1-1-1zm-12 0c-.55 0-1 .45-1 1v4c0 .55.45 1 1 1s1-.45 1-1v-4c0-.55-.45-1-1-1zm1.5 5.5c0 .828.672 1.5 1.5 1.5v2c0 .55.45 1 1 1s1-.45 1-1v-2h2v2c0 .55.45 1 1 1s1-.45 1-1v-2c.828 0 1.5-.672 1.5-1.5v-5.5h-9z"/><path d="m12.472 5c-.152-1.373-.922-2.559-2.025-3.276l.5-1.001c.123-.247.023-.547-.224-.671s-.547-.023-.671.224l-.502 1.004-.13-.052c-.446-.148-.924-.229-1.42-.229s-.974.081-1.42.229l-.13.052-.502-1.004c-.123-.247-.424-.347-.671-.224s-.347.424-.224.671l.5 1.001c-1.103.716-1.873 1.903-2.025 3.276v.5h8.972v-.5zm-5.972-1c-.276 0-.5-.224-.5-.5s.223-.499.499-.5h.001s.001 0 .001 0c.276.001.499.224.499.5s-.224.5-.5.5zm3 0c-.276 0-.5-.224-.5-.5s.223-.499.499-.5h.001s.001 0 .002 0c.276.001.499.224.499.5s-.224.5-.5.5z"/></svg>